<?xml version="1.0" encoding="UTF-8" standalone="no"?>
<svg
   width="77"
   height="73"
   viewBox="0 0 77 73"
   fill="none"
   version="1.1"
   id="svg5"
   sodipodi:docname="plus-2.svg"
   inkscape:version="1.4.2 (f4327f4, 2025-05-13)"
   xmlns:inkscape="http://www.inkscape.org/namespaces/inkscape"
   xmlns:sodipodi="http://sodipodi.sourceforge.net/DTD/sodipodi-0.dtd"
   xmlns="http://www.w3.org/2000/svg"
   xmlns:svg="http://www.w3.org/2000/svg">
  <sodipodi:namedview
     id="namedview5"
     pagecolor="#ffffff"
     bordercolor="#000000"
     borderopacity="0.25"
     inkscape:showpageshadow="2"
     inkscape:pageopacity="0.0"
     inkscape:pagecheckerboard="0"
     inkscape:deskcolor="#d1d1d1"
     inkscape:zoom="6.7808219"
     inkscape:cx="15.853535"
     inkscape:cy="38.564646"
     inkscape:window-width="1366"
     inkscape:window-height="697"
     inkscape:window-x="-8"
     inkscape:window-y="-8"
     inkscape:window-maximized="1"
     inkscape:current-layer="svg5" />
  <defs
     id="defs5">
    <linearGradient
       id="paint0_linear_278_14174"
       x1="3"
       y1="36.9936"
       x2="69.0222"
       y2="36.9936"
       gradientUnits="userSpaceOnUse">
      <stop
         stop-color="#FB3F52"
         id="stop2" />
      <stop
         offset="1"
         stop-color="#FA7D3C"
         id="stop3" />
    </linearGradient>
    <linearGradient
       id="paint1_linear_278_14174"
       x1="10.207"
       y1="33.0064"
       x2="76.2293"
       y2="33.0064"
       gradientUnits="userSpaceOnUse">
      <stop
         stop-color="#FB3F52"
         id="stop4" />
      <stop
         offset="1"
         stop-color="#FA7D3C"
         id="stop5" />
    </linearGradient>
  </defs>
  <path
     fill="#ffb636"
     d="m 34.338196,41.333199 0.06739,0.176221 c 0.02095,0.05686 0.05261,0.133072 0.07974,0.21322 l 0.09789,0.281772 c 0.0383,0.107767 0.06946,0.216645 0.11029,0.342761 0.03891,0.124404 0.08498,0.263628 0.121076,0.400531 l 0.126012,0.450634 c 0.04156,0.157064 0.07641,0.314736 0.118459,0.486521 a 16.350419,16.350419 0 0 1 0.382882,2.254777 c 0.04298,0.40426 0.06122,0.807209 0.07017,1.221548 6.78e-4,0.406074 -0.0092,0.822534 -0.04718,1.229313 a 10.197211,10.197211 0 0 1 -0.18398,1.203705 8.4915602,8.4915602 0 0 1 -0.337827,1.147147 c -0.27794,0.741377 -0.667784,1.426499 -1.174162,2.032084 -0.250524,0.305564 -0.543283,0.578058 -0.833317,0.860235 -0.294176,0.27804 -0.595199,0.55618 -0.909435,0.825756 a 24.068746,24.068746 0 0 1 -1.988938,1.551003 c -0.696415,0.489749 -1.428919,0.943406 -2.180276,1.359662 a 26.116455,26.116455 0 0 1 -1.143923,0.591269 26.234708,26.234708 0 0 1 -1.167612,0.525937 c -0.784726,0.327341 -1.575404,0.611533 -2.359322,0.846929 a 24.043844,24.043844 0 0 1 -2.300045,0.572716 c -1.483356,0.295785 -2.844835,0.417063 -3.856793,0.442971 l -0.361815,0.0063 -0.32492,-3.24e-4 -0.52604,-0.01401 -0.337222,-0.01977 -0.119158,-0.0103 -0.01029,-0.119162 -0.01977,-0.337218 -0.01401,-0.526041 -3.24e-4,-0.32492 0.0062,-0.361818 c 0.0259,-1.011958 0.147088,-2.373433 0.442975,-3.856793 a 24.087799,24.087799 0 0 1 0.572614,-2.30004 c 0.235399,-0.783922 0.519587,-1.574695 0.846928,-2.359323 a 26.286929,26.286929 0 0 1 0.525941,-1.167612 c 0.18751,-0.384702 0.384096,-0.767287 0.591266,-1.143922 0.416255,-0.751357 0.869915,-1.483865 1.359661,-2.18028 a 24.047071,24.047071 0 0 1 1.551006,-1.988936 c 0.269573,-0.314231 0.547616,-0.61536 0.825758,-0.90943 0.282174,-0.290038 0.554672,-0.582799 0.860235,-0.833318 0.605684,-0.506383 1.290704,-0.896226 2.032081,-1.174166 a 8.5061782,8.5061782 0 0 1 1.14715,-0.337822 10.197211,10.197211 0 0 1 1.203706,-0.183985 c 0.406778,-0.038 0.823338,-0.04779 1.229309,-0.04718 0.41434,0.0089 0.817189,0.02723 1.221549,0.07017 a 16.335197,16.335197 0 0 1 2.254779,0.382886 c 0.171683,0.04194 0.329353,0.07692 0.486522,0.118452 l 0.450633,0.126017 c 0.136905,0.03619 0.276224,0.08216 0.400527,0.121077 0.126222,0.04073 0.234994,0.07198 0.342763,0.11029 l 0.281776,0.09789 c 0.08014,0.02713 0.156355,0.05878 0.213212,0.07974 0.115836,0.04386 0.175819,0.06684 0.175819,0.06684 z"
     id="path1"
     style="stroke-width:0.100813;fill:#ffcc00;fill-opacity:1" />
  <path
     fill="#ff473e"
     d="m 21.43477,28.429368 -7.310336,7.310336 c -0.505271,0.505272 -0.147387,1.369239 0.567175,1.369239 h 6.144032 c 0.212715,0 0.41676,0.08448 0.567174,0.234892 l 3.989362,3.989364 6.479339,-13.138726 h -9.869572 a 0.8016631,0.8016631 0 0 0 -0.567174,0.234895 z"
     id="path2"
     style="stroke-width:0.100813;fill:#eb3400;fill-opacity:1" />
  <path
     fill="#ff473e"
     d="m 35.478089,49.684729 3.989367,3.989364 a 0.80216713,0.80216713 0 0 1 0.234892,0.567169 v 6.144037 c 0,0.714565 0.863966,1.072449 1.369239,0.567173 l 7.310339,-7.310337 a 0.80216713,0.80216713 0 0 0 0.234886,-0.56717 v -9.869571 z"
     id="path3"
     style="stroke-width:0.100813;fill:#eb3400;fill-opacity:1" />
  <path
     fill="#adbbbc"
     d="m 64.661974,11.908475 0.0078,0.06422 c 0.0047,0.04224 0.01403,0.107364 0.02068,0.187713 0.01322,0.160596 0.04312,0.409401 0.05735,0.709017 0.04556,0.616369 0.07621,1.484062 0.05471,2.527979 -0.02088,1.044523 -0.09446,2.264657 -0.253948,3.589136 -0.03566,0.335303 -0.0866,0.667279 -0.135794,1.012263 -0.04569,0.34851 -0.11069,0.688953 -0.170069,1.045729 -0.121985,0.710428 -0.274211,1.433358 -0.449928,2.170801 a 36.42718,36.42718 0 0 1 -1.391719,4.506027 c -0.578468,1.51431 -1.272663,3.026905 -2.086321,4.496253 -0.814871,1.468134 -1.741843,2.900179 -2.777899,4.261355 -1.034639,1.362483 -2.176952,2.655407 -3.402534,3.86496 -1.225574,1.209653 -2.532818,2.337545 -3.906287,3.361199 -0.343474,0.255761 -0.688955,0.50729 -1.042205,0.747928 -0.349419,0.244571 -0.706398,0.478457 -1.062162,0.710127 -0.714967,0.459908 -1.445045,0.890274 -2.182694,1.294133 a 36.490793,36.490793 0 0 1 -4.503209,2.079363 37.554973,37.554973 0 0 1 -4.500686,1.397064 c -0.735833,0.177328 -1.454928,0.333387 -2.164146,0.456479 L 34.2508,50.48428 c -0.172991,0.02965 -0.348504,0.05404 -0.518878,0.08075 l -0.505578,0.07712 -0.501443,0.06381 c -1.317317,0.166645 -2.529388,0.248303 -3.566252,0.276833 -1.03575,0.02965 -1.898504,0.004 -2.507817,-0.03458 -0.29659,-0.01118 -0.543782,-0.03962 -0.702462,-0.05081 -0.07954,-0.0058 -0.144164,-0.01462 -0.185901,-0.01885 l -0.06362,-0.0071 c -0.482084,-0.05373 -0.847733,-0.436417 -0.899147,-0.899147 l -0.0071,-0.06351 c -0.0042,-0.04174 -0.01299,-0.106359 -0.01885,-0.185901 -0.01118,-0.15868 -0.03962,-0.405771 -0.05081,-0.702462 -0.03851,-0.609313 -0.06412,-1.471968 -0.03458,-2.50782 0.02853,-1.036858 0.110188,-2.248931 0.276834,-3.566252 l 0.06381,-0.501441 0.07712,-0.505575 c 0.02672,-0.170375 0.05121,-0.345788 0.08075,-0.518886 l 0.09406,-0.522107 c 0.123092,-0.70922 0.279152,-1.428316 0.456479,-2.16415 a 37.512834,37.512834 0 0 1 1.397064,-4.500684 36.520433,36.520433 0 0 1 2.079364,-4.503206 c 0.403957,-0.737545 0.834327,-1.467732 1.294138,-2.182696 0.231665,-0.355771 0.465547,-0.712748 0.71012,-1.062166 0.24064,-0.353348 0.492169,-0.698733 0.747927,-1.042199 1.023657,-1.373476 2.15155,-2.680814 3.3612,-3.906296 1.209556,-1.22558 2.502475,-2.367887 3.864962,-3.40253 1.361172,-1.035951 2.793221,-1.963027 4.261355,-2.777895 1.469347,-0.813661 2.982047,-1.507857 4.496253,-2.08632 a 36.42718,36.42718 0 0 1 4.506028,-1.391722 c 0.73744,-0.175717 1.460372,-0.327944 2.170797,-0.449925 0.356774,-0.05938 0.697225,-0.124404 1.045729,-0.170072 0.344986,-0.0492 0.676861,-0.10021 1.012261,-0.135795 1.324483,-0.159488 2.544621,-0.233081 3.589137,-0.253948 1.04392,-0.02148 1.911615,0.0091 2.527978,0.05474 0.29962,0.01422 0.54843,0.04426 0.709022,0.05736 0.08035,0.0066 0.145474,0.01582 0.187709,0.02066 l 0.0642,0.0078 c 0.480773,0.05797 0.843799,0.438939 0.899246,0.89915 z"
     id="path4"
     style="stroke-width:0.100813" />
  <path
     fill="#ff473e"
     d="m 38.194494,37.476808 0.05878,0.158984 c 0.03274,0.09889 0.07692,0.241142 0.107369,0.399621 0.07218,0.328145 0.09607,0.727565 -0.03437,1.074965 -0.06433,0.174608 -0.183282,0.320183 -0.295281,0.496202 l -0.372306,0.560013 -0.8937,1.342019 a 164.45819,164.45819 0 0 1 -1.073856,1.571371 127.29558,127.29558 0 0 1 -1.221351,1.731157 l -0.656286,0.903179 -0.681898,0.915886 c -0.462632,0.612538 -0.93605,1.231426 -1.417433,1.842253 a 117.08253,117.08253 0 0 1 -1.448074,1.811604 c -0.481986,0.593284 -0.954594,1.178704 -1.419744,1.73751 l -0.682403,0.825857 c -0.226022,0.26675 -0.43158,0.54328 -0.670305,0.773938 -0.237209,0.232072 -0.510917,0.414946 -0.825455,0.54197 -0.311811,0.129745 -0.653164,0.215033 -0.983225,0.294673 a 19.733797,19.733797 0 0 1 -1.884696,0.351033 c -0.292761,0.04002 -0.572717,0.07147 -0.837149,0.09517 -0.263019,0.02502 -0.517471,0.03498 -0.74047,0.05101 -0.224711,0.01422 -0.439239,0.01299 -0.618486,0.01936 -0.181968,0.0037 -0.345788,-0.0024 -0.474023,-0.0024 -0.130955,-0.0031 -0.235597,-0.0095 -0.30405,-0.01179 l -0.107468,-0.0073 -0.0073,-0.107467 c -0.0024,-0.06845 -0.0089,-0.173193 -0.0118,-0.30405 -1.9e-4,-0.128232 -0.0062,-0.291953 -0.0024,-0.474019 0.0062,-0.179345 0.0052,-0.393775 0.01936,-0.618488 0.01592,-0.222995 0.026,-0.477448 0.05101,-0.740467 0.02358,-0.264334 0.05505,-0.544391 0.09517,-0.837149 a 19.733797,19.733797 0 0 1 0.35103,-1.884696 c 0.07964,-0.329962 0.164931,-0.671311 0.294677,-0.983228 0.127025,-0.314637 0.309898,-0.588243 0.541971,-0.825455 0.230658,-0.238623 0.507187,-0.444181 0.77404,-0.670203 l 0.825857,-0.6824 c 0.558807,-0.46515 1.144226,-0.93786 1.737507,-1.419747 0.592277,-0.482894 1.198967,-0.96851 1.811607,-1.448075 0.610823,-0.48148 1.229712,-0.954797 1.842253,-1.417426 l 0.915886,-0.681898 0.903177,-0.656293 a 128.19452,128.19452 0 0 1 1.731159,-1.221344 c 0.55447,-0.384198 1.082629,-0.743497 1.571368,-1.073861 l 1.342021,-0.893699 0.560014,-0.372303 c 0.17592,-0.112004 0.32149,-0.230961 0.496203,-0.29528 0.347399,-0.130454 0.746822,-0.10656 1.074968,-0.03438 0.158477,0.03044 0.300725,0.0746 0.399619,0.107365 z"
     id="path5"
     style="stroke-width:0.100813;fill:#eb3400;fill-opacity:1" />
  <path
     fill="#2b3b47"
     d="m 50.191914,30.94041 c 0,3.016018 -2.445014,5.461027 -5.461025,5.461027 -3.016019,0 -5.461033,-2.445009 -5.461033,-5.461027 0,-3.016014 2.445014,-5.461027 5.461033,-5.461027 3.016011,0 5.461025,2.445013 5.461025,5.461027 z m 2.745034,-11.682282 c -1.919878,0 -3.47623,1.556346 -3.47623,3.476225 0,1.919879 1.556352,3.476226 3.47623,3.476226 1.919879,0 3.476223,-1.556347 3.476223,-3.476226 0,-1.919879 -1.556344,-3.476225 -3.476223,-3.476225 z"
     id="path6"
     style="stroke-width:0.100813;fill:#003399;fill-opacity:1" />
</svg>
