<?xml version="1.0" encoding="UTF-8" standalone="no"?>
<svg
   width="50"
   height="50"
   viewBox="0 0 50 50"
   fill="none"
   version="1.1"
   id="svg125"
   sodipodi:docname="po-dot-shape.svg"
   inkscape:version="1.4.2 (f4327f4, 2025-05-13)"
   xmlns:inkscape="http://www.inkscape.org/namespaces/inkscape"
   xmlns:sodipodi="http://sodipodi.sourceforge.net/DTD/sodipodi-0.dtd"
   xmlns="http://www.w3.org/2000/svg"
   xmlns:svg="http://www.w3.org/2000/svg">
  <sodipodi:namedview
     id="namedview125"
     pagecolor="#ffffff"
     bordercolor="#000000"
     borderopacity="0.25"
     inkscape:showpageshadow="2"
     inkscape:pageopacity="0.0"
     inkscape:pagecheckerboard="0"
     inkscape:deskcolor="#d1d1d1"
     inkscape:zoom="1.7500893"
     inkscape:cx="86.567012"
     inkscape:cy="71.139228"
     inkscape:window-width="1366"
     inkscape:window-height="697"
     inkscape:window-x="-8"
     inkscape:window-y="-8"
     inkscape:window-maximized="1"
     inkscape:current-layer="svg125" />
  <defs
     id="defs125">
    <linearGradient
       id="paint0_linear_2030_827"
       x1="0"
       y1="2.11541"
       x2="4.18912"
       y2="2.11541"
       gradientUnits="userSpaceOnUse">
      <stop
         stop-color="#FB3F52"
         id="stop42" />
      <stop
         offset="1"
         stop-color="#FA7D3C"
         id="stop43" />
    </linearGradient>
    <linearGradient
       id="paint1_linear_2030_827"
       x1="9.15625"
       y1="2.11541"
       x2="13.3454"
       y2="2.11541"
       gradientUnits="userSpaceOnUse">
      <stop
         stop-color="#FB3F52"
         id="stop44" />
      <stop
         offset="1"
         stop-color="#FA7D3C"
         id="stop45" />
    </linearGradient>
    <linearGradient
       id="paint2_linear_2030_827"
       x1="18.3115"
       y1="2.11541"
       x2="22.5006"
       y2="2.11541"
       gradientUnits="userSpaceOnUse">
      <stop
         stop-color="#FB3F52"
         id="stop46" />
      <stop
         offset="1"
         stop-color="#FA7D3C"
         id="stop47" />
    </linearGradient>
    <linearGradient
       id="paint3_linear_2030_827"
       x1="27.4834"
       y1="2.11541"
       x2="31.6725"
       y2="2.11541"
       gradientUnits="userSpaceOnUse">
      <stop
         stop-color="#FB3F52"
         id="stop48" />
      <stop
         offset="1"
         stop-color="#FA7D3C"
         id="stop49" />
    </linearGradient>
    <linearGradient
       id="paint4_linear_2030_827"
       x1="36.6392"
       y1="2.11541"
       x2="40.8283"
       y2="2.11541"
       gradientUnits="userSpaceOnUse">
      <stop
         stop-color="#FB3F52"
         id="stop50" />
      <stop
         offset="1"
         stop-color="#FA7D3C"
         id="stop51" />
    </linearGradient>
    <linearGradient
       id="paint5_linear_2030_827"
       x1="45.811"
       y1="2.11541"
       x2="50.0002"
       y2="2.11541"
       gradientUnits="userSpaceOnUse">
      <stop
         stop-color="#FB3F52"
         id="stop52" />
      <stop
         offset="1"
         stop-color="#FA7D3C"
         id="stop53" />
    </linearGradient>
    <linearGradient
       id="paint6_linear_2030_827"
       x1="0"
       y1="9.74358"
       x2="4.18912"
       y2="9.74358"
       gradientUnits="userSpaceOnUse">
      <stop
         stop-color="#FB3F52"
         id="stop54" />
      <stop
         offset="1"
         stop-color="#FA7D3C"
         id="stop55" />
    </linearGradient>
    <linearGradient
       id="paint7_linear_2030_827"
       x1="9.15527"
       y1="9.74358"
       x2="13.3444"
       y2="9.74358"
       gradientUnits="userSpaceOnUse">
      <stop
         stop-color="#FB3F52"
         id="stop56" />
      <stop
         offset="1"
         stop-color="#FA7D3C"
         id="stop57" />
    </linearGradient>
    <linearGradient
       id="paint8_linear_2030_827"
       x1="18.3115"
       y1="9.74358"
       x2="22.5006"
       y2="9.74358"
       gradientUnits="userSpaceOnUse">
      <stop
         stop-color="#FB3F52"
         id="stop58" />
      <stop
         offset="1"
         stop-color="#FA7D3C"
         id="stop59" />
    </linearGradient>
    <linearGradient
       id="paint9_linear_2030_827"
       x1="27.4829"
       y1="9.74358"
       x2="31.672"
       y2="9.74358"
       gradientUnits="userSpaceOnUse">
      <stop
         stop-color="#FB3F52"
         id="stop60" />
      <stop
         offset="1"
         stop-color="#FA7D3C"
         id="stop61" />
    </linearGradient>
    <linearGradient
       id="paint10_linear_2030_827"
       x1="36.6392"
       y1="9.74358"
       x2="40.8283"
       y2="9.74358"
       gradientUnits="userSpaceOnUse">
      <stop
         stop-color="#FB3F52"
         id="stop62" />
      <stop
         offset="1"
         stop-color="#FA7D3C"
         id="stop63" />
    </linearGradient>
    <linearGradient
       id="paint11_linear_2030_827"
       x1="45.811"
       y1="9.74358"
       x2="50.0002"
       y2="9.74358"
       gradientUnits="userSpaceOnUse">
      <stop
         stop-color="#FB3F52"
         id="stop64" />
      <stop
         offset="1"
         stop-color="#FA7D3C"
         id="stop65" />
    </linearGradient>
    <linearGradient
       id="paint12_linear_2030_827"
       x1="0"
       y1="17.3717"
       x2="4.18912"
       y2="17.3717"
       gradientUnits="userSpaceOnUse">
      <stop
         stop-color="#FB3F52"
         id="stop66" />
      <stop
         offset="1"
         stop-color="#FA7D3C"
         id="stop67" />
    </linearGradient>
    <linearGradient
       id="paint13_linear_2030_827"
       x1="9.15527"
       y1="17.3717"
       x2="13.3444"
       y2="17.3717"
       gradientUnits="userSpaceOnUse">
      <stop
         stop-color="#FB3F52"
         id="stop68" />
      <stop
         offset="1"
         stop-color="#FA7D3C"
         id="stop69" />
    </linearGradient>
    <linearGradient
       id="paint14_linear_2030_827"
       x1="18.3115"
       y1="17.3717"
       x2="22.5006"
       y2="17.3717"
       gradientUnits="userSpaceOnUse">
      <stop
         stop-color="#FB3F52"
         id="stop70" />
      <stop
         offset="1"
         stop-color="#FA7D3C"
         id="stop71" />
    </linearGradient>
    <linearGradient
       id="paint15_linear_2030_827"
       x1="27.4829"
       y1="17.3717"
       x2="31.672"
       y2="17.3717"
       gradientUnits="userSpaceOnUse">
      <stop
         stop-color="#FB3F52"
         id="stop72" />
      <stop
         offset="1"
         stop-color="#FA7D3C"
         id="stop73" />
    </linearGradient>
    <linearGradient
       id="paint16_linear_2030_827"
       x1="36.6392"
       y1="17.3717"
       x2="40.8283"
       y2="17.3717"
       gradientUnits="userSpaceOnUse">
      <stop
         stop-color="#FB3F52"
         id="stop74" />
      <stop
         offset="1"
         stop-color="#FA7D3C"
         id="stop75" />
    </linearGradient>
    <linearGradient
       id="paint17_linear_2030_827"
       x1="45.811"
       y1="17.3717"
       x2="50.0002"
       y2="17.3717"
       gradientUnits="userSpaceOnUse">
      <stop
         stop-color="#FB3F52"
         id="stop76" />
      <stop
         offset="1"
         stop-color="#FA7D3C"
         id="stop77" />
    </linearGradient>
    <linearGradient
       id="paint18_linear_2030_827"
       x1="0"
       y1="24.9999"
       x2="4.18912"
       y2="24.9999"
       gradientUnits="userSpaceOnUse">
      <stop
         stop-color="#FB3F52"
         id="stop78" />
      <stop
         offset="1"
         stop-color="#FA7D3C"
         id="stop79" />
    </linearGradient>
    <linearGradient
       id="paint19_linear_2030_827"
       x1="9.15625"
       y1="24.9999"
       x2="13.3454"
       y2="24.9999"
       gradientUnits="userSpaceOnUse">
      <stop
         stop-color="#FB3F52"
         id="stop80" />
      <stop
         offset="1"
         stop-color="#FA7D3C"
         id="stop81" />
    </linearGradient>
    <linearGradient
       id="paint20_linear_2030_827"
       x1="18.3115"
       y1="24.9999"
       x2="22.5006"
       y2="24.9999"
       gradientUnits="userSpaceOnUse">
      <stop
         stop-color="#FB3F52"
         id="stop82" />
      <stop
         offset="1"
         stop-color="#FA7D3C"
         id="stop83" />
    </linearGradient>
    <linearGradient
       id="paint21_linear_2030_827"
       x1="27.4834"
       y1="24.9999"
       x2="31.6725"
       y2="24.9999"
       gradientUnits="userSpaceOnUse">
      <stop
         stop-color="#FB3F52"
         id="stop84" />
      <stop
         offset="1"
         stop-color="#FA7D3C"
         id="stop85" />
    </linearGradient>
    <linearGradient
       id="paint22_linear_2030_827"
       x1="36.6392"
       y1="24.9999"
       x2="40.8283"
       y2="24.9999"
       gradientUnits="userSpaceOnUse">
      <stop
         stop-color="#FB3F52"
         id="stop86" />
      <stop
         offset="1"
         stop-color="#FA7D3C"
         id="stop87" />
    </linearGradient>
    <linearGradient
       id="paint23_linear_2030_827"
       x1="45.811"
       y1="24.9999"
       x2="50.0002"
       y2="24.9999"
       gradientUnits="userSpaceOnUse">
      <stop
         stop-color="#FB3F52"
         id="stop88" />
      <stop
         offset="1"
         stop-color="#FA7D3C"
         id="stop89" />
    </linearGradient>
    <linearGradient
       id="paint24_linear_2030_827"
       x1="0"
       y1="32.6269"
       x2="4.18912"
       y2="32.6269"
       gradientUnits="userSpaceOnUse">
      <stop
         stop-color="#FB3F52"
         id="stop90" />
      <stop
         offset="1"
         stop-color="#FA7D3C"
         id="stop91" />
    </linearGradient>
    <linearGradient
       id="paint25_linear_2030_827"
       x1="9.15625"
       y1="32.6269"
       x2="13.3454"
       y2="32.6269"
       gradientUnits="userSpaceOnUse">
      <stop
         stop-color="#FB3F52"
         id="stop92" />
      <stop
         offset="1"
         stop-color="#FA7D3C"
         id="stop93" />
    </linearGradient>
    <linearGradient
       id="paint26_linear_2030_827"
       x1="18.3115"
       y1="32.6269"
       x2="22.5006"
       y2="32.6269"
       gradientUnits="userSpaceOnUse">
      <stop
         stop-color="#FB3F52"
         id="stop94" />
      <stop
         offset="1"
         stop-color="#FA7D3C"
         id="stop95" />
    </linearGradient>
    <linearGradient
       id="paint27_linear_2030_827"
       x1="27.4834"
       y1="32.6269"
       x2="31.6725"
       y2="32.6269"
       gradientUnits="userSpaceOnUse">
      <stop
         stop-color="#FB3F52"
         id="stop96" />
      <stop
         offset="1"
         stop-color="#FA7D3C"
         id="stop97" />
    </linearGradient>
    <linearGradient
       id="paint28_linear_2030_827"
       x1="36.6392"
       y1="32.6269"
       x2="40.8283"
       y2="32.6269"
       gradientUnits="userSpaceOnUse">
      <stop
         stop-color="#FB3F52"
         id="stop98" />
      <stop
         offset="1"
         stop-color="#FA7D3C"
         id="stop99" />
    </linearGradient>
    <linearGradient
       id="paint29_linear_2030_827"
       x1="45.811"
       y1="32.6269"
       x2="50.0002"
       y2="32.6269"
       gradientUnits="userSpaceOnUse">
      <stop
         stop-color="#FB3F52"
         id="stop100" />
      <stop
         offset="1"
         stop-color="#FA7D3C"
         id="stop101" />
    </linearGradient>
    <linearGradient
       id="paint30_linear_2030_827"
       x1="0"
       y1="40.2558"
       x2="4.18912"
       y2="40.2558"
       gradientUnits="userSpaceOnUse">
      <stop
         stop-color="#FB3F52"
         id="stop102" />
      <stop
         offset="1"
         stop-color="#FA7D3C"
         id="stop103" />
    </linearGradient>
    <linearGradient
       id="paint31_linear_2030_827"
       x1="9.15527"
       y1="40.2558"
       x2="13.3444"
       y2="40.2558"
       gradientUnits="userSpaceOnUse">
      <stop
         stop-color="#FB3F52"
         id="stop104" />
      <stop
         offset="1"
         stop-color="#FA7D3C"
         id="stop105" />
    </linearGradient>
    <linearGradient
       id="paint32_linear_2030_827"
       x1="18.3115"
       y1="40.2558"
       x2="22.5006"
       y2="40.2558"
       gradientUnits="userSpaceOnUse">
      <stop
         stop-color="#FB3F52"
         id="stop106" />
      <stop
         offset="1"
         stop-color="#FA7D3C"
         id="stop107" />
    </linearGradient>
    <linearGradient
       id="paint33_linear_2030_827"
       x1="27.4829"
       y1="40.2558"
       x2="31.672"
       y2="40.2558"
       gradientUnits="userSpaceOnUse">
      <stop
         stop-color="#FB3F52"
         id="stop108" />
      <stop
         offset="1"
         stop-color="#FA7D3C"
         id="stop109" />
    </linearGradient>
    <linearGradient
       id="paint34_linear_2030_827"
       x1="36.6392"
       y1="40.2558"
       x2="40.8283"
       y2="40.2558"
       gradientUnits="userSpaceOnUse">
      <stop
         stop-color="#FB3F52"
         id="stop110" />
      <stop
         offset="1"
         stop-color="#FA7D3C"
         id="stop111" />
    </linearGradient>
    <linearGradient
       id="paint35_linear_2030_827"
       x1="45.811"
       y1="40.2558"
       x2="50.0002"
       y2="40.2558"
       gradientUnits="userSpaceOnUse">
      <stop
         stop-color="#FB3F52"
         id="stop112" />
      <stop
         offset="1"
         stop-color="#FA7D3C"
         id="stop113" />
    </linearGradient>
    <linearGradient
       id="paint36_linear_2030_827"
       x1="0"
       y1="47.8846"
       x2="4.18912"
       y2="47.8846"
       gradientUnits="userSpaceOnUse">
      <stop
         stop-color="#FB3F52"
         id="stop114" />
      <stop
         offset="1"
         stop-color="#FA7D3C"
         id="stop115" />
    </linearGradient>
    <linearGradient
       id="paint37_linear_2030_827"
       x1="9.15527"
       y1="47.8846"
       x2="13.3444"
       y2="47.8846"
       gradientUnits="userSpaceOnUse">
      <stop
         stop-color="#FB3F52"
         id="stop116" />
      <stop
         offset="1"
         stop-color="#FA7D3C"
         id="stop117" />
    </linearGradient>
    <linearGradient
       id="paint38_linear_2030_827"
       x1="18.3115"
       y1="47.8846"
       x2="22.5006"
       y2="47.8846"
       gradientUnits="userSpaceOnUse">
      <stop
         stop-color="#FB3F52"
         id="stop118" />
      <stop
         offset="1"
         stop-color="#FA7D3C"
         id="stop119" />
    </linearGradient>
    <linearGradient
       id="paint39_linear_2030_827"
       x1="27.4829"
       y1="47.8846"
       x2="31.672"
       y2="47.8846"
       gradientUnits="userSpaceOnUse">
      <stop
         stop-color="#FB3F52"
         id="stop120" />
      <stop
         offset="1"
         stop-color="#FA7D3C"
         id="stop121" />
    </linearGradient>
    <linearGradient
       id="paint40_linear_2030_827"
       x1="36.6392"
       y1="47.8846"
       x2="40.8283"
       y2="47.8846"
       gradientUnits="userSpaceOnUse">
      <stop
         stop-color="#FB3F52"
         id="stop122" />
      <stop
         offset="1"
         stop-color="#FA7D3C"
         id="stop123" />
    </linearGradient>
    <linearGradient
       id="paint41_linear_2030_827"
       x1="45.811"
       y1="47.8846"
       x2="50.0002"
       y2="47.8846"
       gradientUnits="userSpaceOnUse">
      <stop
         stop-color="#FB3F52"
         id="stop124" />
      <stop
         offset="1"
         stop-color="#FA7D3C"
         id="stop125" />
    </linearGradient>
  </defs>
  <path
     style="fill:#74bae7;stroke-width:0.0882448"
     d="m 39.983698,25.876649 c 0,8.042459 -6.519354,14.562166 -14.561992,14.562166 -8.04237,0 -14.561988,-6.519707 -14.561988,-14.562166 0,-8.042463 6.519618,-14.562171 14.561988,-14.562171 8.042638,0 14.561992,6.519708 14.561992,14.562171 z"
     id="path1" />
  <g
     id="g4"
     transform="matrix(0.08824487,0,0,0.08824487,2.8310222,3.2859612)">
	<path
   style="fill:#89dc6d"
   d="m 154.151,265.525 c -20.214,-21.77 -2.333,-32.654 -2.333,-32.654 0,0 37.319,-19.439 48.206,-21.771 10.882,-2.333 11.661,-24.101 7.774,-34.984 -3.877,-10.859 -89.338,-10.653 -89.77,-10.651 -17.092,25.996 -27.044,57.1 -27.044,90.536 0,54.939 26.854,103.601 68.145,133.593 4.602,-2.531 6.79,-7.162 4.925,-14.444 -8.757,-34.208 42.966,-57.532 45.88,-84.745 2.908,-27.213 -35.568,-3.111 -55.783,-24.88 z"
   id="path2" />

	<path
   style="fill:#89dc6d"
   d="m 222.568,331.61 c 0,0 -17.188,18.659 -12.482,32.654 4.706,13.993 21.811,20.215 30.365,0 8.553,-20.215 -0.779,-44.317 -17.883,-32.654 z"
   id="path3" />

	<path
   style="fill:#89dc6d"
   d="m 311.383,330.814 c 10.513,20.566 26.389,49.347 40.383,59.585 10.569,-7.542 20.206,-16.303 28.716,-26.072 12.828,-37.137 17.676,-73.855 7.69,-86.797 -11.662,-15.114 -22.546,-39.215 -6.998,-44.658 9.896,-3.465 24.517,19.797 39.452,34.48 0.252,-3.752 0.392,-7.536 0.392,-11.351 0,-54.775 -26.695,-103.308 -67.775,-133.322 v 0 c 0,0 -10.166,16.118 -21.828,16.118 -11.661,0 -44.315,0 -40.428,21.768 3.885,21.77 27.21,26.435 22.546,45.095 -4.664,18.658 -80.857,18.659 -57.534,64.53 21.464,42.206 33.299,24.513 43.72,38.38"
   id="path4" />

</g>
  <path
     style="fill:#74bae7;stroke-width:0.0882448"
     d="m 25.421706,48.467334 c -6.034272,0 -11.70718,-2.349871 -15.9739948,-6.616775 -4.266904,-4.26673 -6.616689,-9.939641 -6.616689,-15.97391 0,-6.034273 2.349785,-11.707184 6.616775,-15.9739098 4.2667288,-4.266907 9.9396368,-6.616778 15.9739088,-6.616778 4.173279,0 8.250542,1.147184 11.790928,3.317567 0.335858,0.205964 0.441226,0.645069 0.235438,0.981017 -0.206053,0.335861 -0.645159,0.441225 -0.98102,0.235348 -3.316066,-2.032721 -7.135477,-3.10719 -11.045346,-3.10719 -11.669852,0 -21.1639418,9.4940898 -21.1639418,21.1639458 0,11.669852 9.4940898,21.163943 21.1639418,21.163943 11.669856,0 21.163947,-9.494091 21.163947,-21.163943 0,-5.186419 -1.894883,-10.175958 -5.335551,-14.049202 -0.261648,-0.294562 -0.234908,-0.745404 0.05956,-1.007141 0.294651,-0.261644 0.745582,-0.234994 1.007227,0.05957 3.672665,4.134714 5.695501,9.460644 5.695501,14.996776 0,6.034269 -2.349785,11.70718 -6.616778,15.973996 -4.266727,4.266818 -9.939813,6.616689 -15.973911,6.616689 z"
     id="path5" />
  <path
     style="fill:#578cad;stroke-width:0.0882448"
     d="m 39.428199,5.9891672 c -1.721482,0 -3.121928,1.400446 -3.121928,3.121839 0,1.7214788 1.400535,3.1219248 3.121928,3.1219248 1.72139,0 3.121662,-1.400446 3.121662,-3.1219248 1.15e-4,-1.721307 -1.400272,-3.121839 -3.121662,-3.121839 z"
     id="path6" />
  <g
     id="g8"
     transform="matrix(0.08824487,0,0,0.08824487,2.8310222,3.2859612)">
	<path
   style="opacity:0.1;fill:#231f20;enable-background:new"
   d="m 396.079,66.009 c 0,-16.623 11.529,-30.598 27.011,-34.368 -2.684,-0.653 -5.484,-1.009 -8.367,-1.009 -19.508,0 -35.378,15.87 -35.378,35.377 0,19.508 15.871,35.378 35.378,35.378 2.882,0 5.683,-0.355 8.367,-1.009 -15.482,-3.77 -27.011,-17.743 -27.011,-34.369 z"
   id="path7" />

	<path
   style="opacity:0.1;fill:#231f20;enable-background:new"
   d="m 107.716,256 c 0,-88.331 69.402,-160.452 156.652,-164.81 -2.772,-0.138 -5.561,-0.21 -8.368,-0.21 -91.137,0 -165.018,73.882 -165.018,165.02 0,91.138 73.881,165.02 165.018,165.02 2.807,0 5.594,-0.071 8.368,-0.21 C 177.117,416.452 107.716,344.331 107.716,256 Z"
   id="path8" />

</g>
</svg>
