<?xml version="1.0" encoding="UTF-8" standalone="no"?>
<!-- Uploaded to: SVG Repo, www.svgrepo.com, Generator: SVG Repo Mixer Tools -->

<svg
   fill="#000000"
   width="800px"
   height="800px"
   viewBox="0 0 50 50"
   version="1.1"
   id="svg1"
   sodipodi:docname="pointer.svg"
   inkscape:version="1.4.2 (f4327f4, 2025-05-13)"
   xmlns:inkscape="http://www.inkscape.org/namespaces/inkscape"
   xmlns:sodipodi="http://sodipodi.sourceforge.net/DTD/sodipodi-0.dtd"
   xmlns="http://www.w3.org/2000/svg"
   xmlns:svg="http://www.w3.org/2000/svg">
  <defs
     id="defs1" />
  <sodipodi:namedview
     id="namedview1"
     pagecolor="#ffffff"
     bordercolor="#000000"
     borderopacity="0.25"
     inkscape:showpageshadow="2"
     inkscape:pageopacity="0.0"
     inkscape:pagecheckerboard="0"
     inkscape:deskcolor="#d1d1d1"
     inkscape:zoom="0.61875"
     inkscape:cx="400.80808"
     inkscape:cy="400"
     inkscape:window-width="1366"
     inkscape:window-height="697"
     inkscape:window-x="-8"
     inkscape:window-y="-8"
     inkscape:window-maximized="1"
     inkscape:current-layer="svg1" />
  <path
     d="M33 38H21c-.6 0-1-.4-1-1 0-1.5-.7-2.4-1.8-3.8-.6-.7-1.3-1.6-2-2.7-1.9-3-3.6-6.6-4-7.9-.4-1.3-.1-2.2.3-2.7.4-.6 1.2-.9 2.1-.9 1.2 0 2.4 1 3.5 2.3V11c0-1.7 1.3-3 3-3s3 1.3 3 3v4.2c.3-.1.6-.2 1-.2 1.1 0 2 .6 2.5 1.4.4-.3.9-.4 1.4-.4 1.4 0 2.5.9 2.9 2.2.3-.1.7-.2 1.1-.2 1.7 0 3 1.3 3 3v3c0 2.6-.5 4.7-1 6.7s-1 3.9-1 6.3c0 .6-.4 1-1 1zm-11.1-2H32c.1-2.2.6-4 1-5.8.5-2 1-3.9 1-6.2v-3c0-.6-.4-1-1-1s-1 .4-1 1v1c0 .6-.4 1-1 1s-1-.4-1-1v-3c0-.6-.4-1-1-1s-1 .4-1 1v2c0 .6-.4 1-1 1s-1-.4-1-1v-3c0-.6-.4-1-1-1s-1 .4-1 1v2c0 .6-.4 1-1 1s-1-.4-1-1v-9c0-.6-.4-1-1-1s-1 .4-1 1v15c0 .6-.4 1-1 1s-1-.4-1-1v-.8c-.9-2.3-2.8-4.2-3.5-4.2-.2 0-.4 0-.5.1-.1.1-.1.4 0 .9.3 1.1 1.8 4.3 3.8 7.5.6 1 1.2 1.7 1.8 2.5 1.1 1.2 2.1 2.3 2.3 4z"
     id="path1" />
  <path
     style="fill:#ffffff;stroke-width:9.16249;stroke-linejoin:round;paint-order:fill markers stroke"
     d="m 350.86336,572.52525 c -6.01637,-22.08494 -12.48367,-34.09291 -27.40779,-50.88858 -25.85735,-29.09999 -52.02611,-70.28614 -77.79865,-122.44475 -22.43974,-45.41366 -26.57544,-60.77127 -16.67332,-61.91518 12.28967,-1.41972 36.36968,22.93587 51.40759,51.99591 5.25506,10.15515 6.4775,14.19369 6.4775,21.39962 0,9.64553 3.08487,17.36106 7.99128,19.9869 5.72202,3.06232 15.70448,1.9792 20.60546,-2.23577 L 320,424.52357 l 0.80808,-127.95793 0.80808,-127.95794 4.53457,-3.89981 c 7.44206,-6.4003 18.47432,-4.45503 22.86277,4.03131 2.15507,4.16745 2.50165,15.47169 2.50165,81.59547 v 76.75781 l 3.90047,4.53457 c 3.31865,3.85815 5.12126,4.53457 12.08448,4.53457 6.7831,0 8.94864,-0.76463 12.6509,-4.46688 4.37296,-4.37298 4.48417,-4.9583 5.28926,-27.83956 0.75714,-21.51867 1.11147,-23.66131 4.46689,-27.01154 5.00706,-4.99928 15.17867,-4.99927 20.1857,3e-5 3.46801,3.46266 3.68367,5.15717 4.4526,34.98755 0.78274,30.36561 0.93022,31.47857 4.70292,35.49154 4.80209,5.10793 13.09308,6.86258 19.63081,4.15457 8.59841,-3.56158 9.60567,-6.65424 9.60567,-29.49296 0,-23.30047 1.57133,-28.51761 9.58938,-31.8388 5.67601,-2.35107 11.04478,-1.36626 16.46888,3.02096 3.74748,3.0311 3.86035,3.86538 4.64881,34.36393 0.53143,20.55621 1.49547,32.45805 2.81587,34.76434 2.49458,4.35718 11.8252,7.58892 17.99686,6.23339 2.55197,-0.5605 6.34363,-2.83259 8.42591,-5.0491 3.25784,-3.46779 3.90617,-6.1813 4.64742,-19.45121 0.80394,-14.3925 1.16391,-15.68133 5.39598,-19.3205 5.1965,-4.4685 10.58572,-4.93867 17.22926,-1.50316 7.8203,4.04402 8.73872,10.07584 7.62447,50.07449 -1.15898,41.60451 -2.98978,54.86678 -13.86424,100.43248 -10.83465,45.39885 -14.31389,62.85224 -16.63743,83.46053 l -1.95884,17.37373 h -79.72674 c -62.41043,0 -79.84627,-0.43877 -80.27708,-2.0202 z"
     id="path2"
     transform="scale(0.0625)" />
</svg>
