<?xml version="1.0" encoding="UTF-8" standalone="no"?>
<!-- Created with Inkscape (http://www.inkscape.org/) -->

<svg
   version="1.1"
   id="svg1"
   width="370"
   height="240"
   viewBox="0 0 370 240"
   xml:space="preserve"
   xmlns="http://www.w3.org/2000/svg"
   xmlns:svg="http://www.w3.org/2000/svg"><defs
     id="defs1" /><g
     id="g1"><g
       style="fill:#003399;stroke:#003399"
       id="g2"
       transform="matrix(0.92506571,0,0,0.92506571,89.553308,-0.19435561)"><g
         id="SVGRepo_bgCarrier"
         stroke-width="0" /><g
         id="SVGRepo_tracerCarrier"
         stroke-linecap="round"
         stroke-linejoin="round" /><g
         id="SVGRepo_iconCarrier"> <path
   d="m 128.154,116.506 -1.596,-3.07 -4.494,4.347 2.186,2.75 z m -13.408,101.246 -0.515,-4.003 -5.01,2.185 1.203,5.919 2.407,1.448 z m -82.804,-81.601 6.606,-2.505 4.813,0.737 2.947,-5.28 0.687,-8.447 -6.434,-2.382 -0.957,-2.21 4.96,-3.389 -4.076,-1.744 -3.143,6.115 -4.961,-1.915 -2.676,6.507 2.75,2.603 -3.978,4.838 -3.143,0.589 0.712,4.715 z m 95.647,-23.844 3.512,6.753 4.494,-1.547 1.056,-4.715 4.714,-0.418 2.505,-6.826 0.246,-11.837 3.978,-3.683 2.676,-6.63 -6.311,-4.838 -1.497,-6.237 0.613,-5.599 3.119,-7.391 6.409,-6.385 1.646,-4.739 -1.449,-2.702 3.438,-8.521 4.592,-0.565 4.199,1.769 -0.835,4.984 -5.624,13.015 -3.585,5.501 3.414,10.682 0.024,4.224 9.626,3.462 13.58,-7.146 8.226,-21.045 -6.974,-4.518 -9.061,-21.953 0.884,-7.048 -6.065,-5.206 0.515,-7.563 -5.009,-3.585 -3.364,2.038 -1.547,10.583 -7.122,0.713 -3.266,-3.708 -2.578,2.21 -1.179,5.549 -5.157,-0.81 -9.11,19.449 0.294,6.163 -2.48,5.746 1.204,4.298 -4.175,0.589 -2.136,5.133 0.908,11.762 2.677,2.554 -2.161,2.996 1.154,6.433 -2.996,4.273 -1.547,9.135 7.072,13.801 z m 19.105,134.126 -6.606,2.039 -4.223,-1.449 -3.954,3.045 12.941,7.146 3.684,0.786 -0.147,-5.059 1.939,-5.992 z m -40.15,-18.392 1.94,7.71 -0.835,3.659 6.974,0.786 1.621,-10.436 -3.364,-5.624 z m 109.595,-41.623 3.757,-2.971 -0.614,-3.904 -6.655,1.965 -2.505,-4.568 -2.186,-7.367 -7.048,-6.925 -8.005,3.88 -11.738,1.94 -4.224,-2.701 1.13,-5.206 -0.123,-3.438 5.501,-8.668 -3.315,-5.378 -1.4,-13.383 -2.873,-5.402 3.904,-0.368 4.224,-4.371 2.235,-10.559 3.855,-1.891 1.645,-3.241 -5.697,-9.012 0.221,-3.413 -3.978,-5.402 2.333,-5.28 -8.374,0.025 -7.735,5.034 1.105,4.788 4.027,4.42 1.228,4.592 -2.333,2.456 -5.452,-4.985 -3.241,2.087 -1.694,5.623 0.835,5.672 1.866,5.476 6.876,1.94 0.516,3.954 -17.337,2.406 -2.112,-3.143 -7.244,2.849 -1.694,2.136 -8.177,3.192 -7.612,-3.61 -5.648,3.512 -7.539,-5.844 0.663,-4.568 2.75,-3.61 0.074,-7.367 -3.978,-0.688 -4.813,3.241 1.989,12.327 0.712,7.907 -7.465,4.125 -5.304,-1.449 -5.697,2.898 -4.224,9.896 1.105,1.744 -0.172,-0.025 -4.027,-0.393 -4.027,1.743 -4.568,1.13 -2.726,6.434 -4.666,1.13 -2.652,2.996 -4.445,-1.793 -2.578,4.715 -5.771,0.81 -1.498,-2.996 -7.416,0.368 -1.375,1.915 3.34,4.101 8.497,7.858 0.295,4.199 3.241,2.357 -3.831,16.305 -3.168,4.297 -1.915,0.417 -26.84,-7.711 -3.07,-2.259 -9.086,4.125 2.357,5.451 -1.326,2.235 -1.351,7.244 -2.873,6.016 -6.385,9.381 3.315,3.659 -3.831,9.528 7.195,1.866 2.529,-0.712 5.009,3.045 0.933,5.378 4.592,2.308 0.098,0.025 6.409,-3.119 13.997,2.407 3.536,-4.273 5.353,-1.94 2.726,-4.322 4.788,-2.357 -2.382,-6.336 9.061,-10.387 6.262,-1.031 7.146,-4.494 0.025,-3.512 0.098,-5.083 4.789,-2.775 9.061,3.266 5.722,0.196 4.666,-4.248 3.634,-1.105 3.07,-3.438 7.391,3.094 3.462,9.061 13.285,11.517 3.831,-0.368 2.308,3.02 3.831,0.958 1.13,3.217 4.15,0.982 4.15,9.724 -2.849,4.101 2.824,2.014 5.378,-7.76 -0.049,-3.855 -3.954,-1.768 2.48,-6.557 5.378,-1.547 -11.836,-4.739 -0.295,-3.855 -5.059,0.467 -6.164,-4.617 -2.873,-6.851 -6.974,-5.083 0.688,-5.402 -1.498,-3.634 7.49,-1.277 -0.589,0.81 7.244,3.536 1.572,5.599 4.543,3.536 1.203,-4.101 -2.898,-6.876 5.918,-1.473 11.615,1.522 -1.866,-7.441 6.728,-2.235 3.34,4.15 4.199,1.964 v 2.726 l 5.992,1.154 1.449,1.793 -1.277,3.438 4.199,3.88 -2.136,2.873 -0.172,4.273 3.143,1.719 1.326,4.96 -10.044,5.427 -3.659,10.608 5.451,5.574 4.125,2.431 -1.842,3.831 2.873,1.67 2.578,5.427 7.883,-1.179 -0.982,-9.086 3.806,-3.168 -4.199,-1.94 -4.224,-7.932 -2.038,-1.793 7.269,-3.782 0.54,-2.849 4.789,-3.143 6.507,0.417 -0.491,-7.195 4.469,-4.003 2.21,-5.329 -0.54,-3.315 2.259,-5.108 z m -99.084,-0.369 -11.075,3.119 -4.199,-0.246 -1.081,-3.659 -3.291,-1.547 7.711,-6.999 5.132,-1.449 5.574,1.915 -0.54,3.266 4.273,1.793 z"
   id="path1" /> </g></g></g></svg>
