<?xml version="1.0" encoding="UTF-8" standalone="no"?>
<!-- Created with Inkscape (http://www.inkscape.org/) -->

<svg
   version="1.1"
   id="svg1"
   width="570"
   height="320"
   viewBox="0 0 570 320"
   xml:space="preserve"
   xmlns="http://www.w3.org/2000/svg"
   xmlns:svg="http://www.w3.org/2000/svg"><defs
     id="defs1" /><g
     id="g1"><g
       style="fill:#000000"
       id="g2"
       transform="matrix(0.26509233,0,0,0.26509233,143.50535,21.427812)"><g
         id="SVGRepo_bgCarrier"
         stroke-width="0" /><g
         id="SVGRepo_tracerCarrier"
         stroke-linecap="round"
         stroke-linejoin="round" /><g
         id="SVGRepo_iconCarrier"
         style="fill:#ffca28;fill-opacity:1"><path
           d="m 853.33333,256 h -384 L 384,170.66667 H 170.66667 c -46.93334,0 -85.333336,38.4 -85.333337,85.33333 V 426.66667 H 938.66667 V 341.33333 C 938.66667,294.4 900.26667,256 853.33333,256 Z"
           fill="#ffa000"
           id="path1"
           style="fill:#ffca28;fill-opacity:1" /><path
           d="M 853.33333,256 H 170.66667 c -46.93334,0 -85.333336,38.4 -85.333337,85.33333 V 768 c 0,46.93333 38.399997,85.33333 85.333337,85.33333 h 682.66666 c 46.93334,0 85.33334,-38.4 85.33334,-85.33333 V 341.33333 C 938.66667,294.4 900.26667,256 853.33333,256 Z"
           fill="#ffca28"
           id="path2"
           style="fill:#ffca28;fill-opacity:1" /></g><path
         d="M 269.90794,625.82435 H 895.0333 c 28.80095,0 52.11101,-23.3101 52.11101,-52.11104 V 54.571254 H 217.79691 V 573.71331 c 0,28.80094 23.3101,52.11104 52.11103,52.11104 z"
         fill="#FFEA00"
         id="path1-6"
         style="fill:#ba2900;fill-opacity:1;stroke-width:1.036" /><path
         d="m 203.60364,692.12868 h 625.12534 c 28.80094,0 52.11104,-23.31012 52.11104,-52.11105 V 120.87557 H 151.49259 v 519.14206 c 0,28.80093 23.3101,52.11105 52.11105,52.11105 z"
         fill="#FFFF8D"
         id="path2-5"
         style="fill:#eb3400;fill-opacity:1;stroke-width:1.036" /><path
         d="m 1013.4487,389.20085 v 397.82586 c 0,36.57099 -29.73339,66.30432 -66.30439,66.30432 H 151.49259 c -36.57099,0 -66.304313,-29.73333 -66.304313,-66.30432 V 253.27698 c 0,-36.57095 29.733323,-66.3043 66.304313,-66.3043 h 356.48928 c 25.38213,0 48.48504,14.40047 59.57029,37.19257 l 48.17423,98.73127 h 331.41792 c 36.571,0 66.30439,29.73334 66.30439,66.30433 z"
         fill="#3D5AFE"
         id="path3"
         style="fill:#ffc104;fill-opacity:1;stroke-width:1.036" /><path
         d="m 748.23139,386.09282 c 0,-21.44531 -1.45038,-42.5798 -4.24761,-63.1963 H 615.72639 l -48.17423,-98.73127 c -11.08525,-22.7921 -34.29177,-37.19257 -59.57029,-37.19257 H 151.49259 c -36.57099,0 -66.304313,29.73335 -66.304313,66.3043 v 533.74973 c 0,6.94128 1.035999,13.67528 3.107997,19.99489 59.466716,27.66132 125.874636,43.20143 195.804936,43.20143 256.30761,0 464.13018,-207.82259 464.13018,-464.13021 z"
         fill="#536DFE"
         id="path4"
         style="fill:#ffca28;fill-opacity:1;stroke-width:1.036" /></g></g></svg>
