<?xml version="1.0" encoding="UTF-8" standalone="no"?>
<!-- Uploaded to: SVG Repo, www.svgrepo.com, Transformed by: SVG Repo Mixer Tools -->

<svg
   version="1.1"
   id="Uploaded to svgrepo.com"
   width="826.87897"
   height="185.24521"
   viewBox="0 0 33.075158 7.4098083"
   xml:space="preserve"
   fill="#000000"
   sodipodi:docname="blocks2.svg"
   inkscape:version="1.4.2 (f4327f4, 2025-05-13)"
   xmlns:inkscape="http://www.inkscape.org/namespaces/inkscape"
   xmlns:sodipodi="http://sodipodi.sourceforge.net/DTD/sodipodi-0.dtd"
   xmlns="http://www.w3.org/2000/svg"
   xmlns:svg="http://www.w3.org/2000/svg"><defs
   id="defs11" /><sodipodi:namedview
   id="namedview11"
   pagecolor="#ffffff"
   bordercolor="#000000"
   borderopacity="0.25"
   inkscape:showpageshadow="2"
   inkscape:pageopacity="0.0"
   inkscape:pagecheckerboard="0"
   inkscape:deskcolor="#d1d1d1"
   inkscape:zoom="0.61875"
   inkscape:cx="294.14141"
   inkscape:cy="176.9697"
   inkscape:window-width="1366"
   inkscape:window-height="697"
   inkscape:window-x="-8"
   inkscape:window-y="-8"
   inkscape:window-maximized="1"
   inkscape:current-layer="g11" />

<g
   id="SVGRepo_bgCarrier"
   stroke-width="0"
   transform="translate(-2.8977967,-16.81888)" />

<g
   id="SVGRepo_tracerCarrier"
   stroke-linecap="round"
   stroke-linejoin="round"
   transform="translate(-2.8977967,-16.81888)" />

<g
   id="SVGRepo_iconCarrier"
   transform="translate(-2.8977967,-16.81888)"> <style
   type="text/css"
   id="style1"> .isometric_vijf{fill:#F29227;} .isometric_zes{fill:#F28103;} .isometric_zeven{fill:#FF7344;} .isometric_acht{fill:#F05A28;} .isometric_negen{fill:#BE1E2D;} .isometric_tien{fill:#7BD6C4;} .isometric_elf{fill:#72C0AB;} .isometric_twaalf{fill:#569080;} .st0{fill:#225B49;} .st1{fill:#F8F7C5;} .st2{fill:#BE1E2D;} .st3{fill:#AD9A74;} .st4{fill:#F2D76C;} .st5{fill:#F5DF89;} .st6{fill:#7BD6C4;} .st7{fill:#80CCBE;} </style> <g
   id="g11">         <polygon
   class="isometric_zes"
   points="21.962,13.456 27.962,16.915 22,20.379 16,16.923 "
   id="polygon6"
   style="fill:#d6ab00;fill-opacity:1"
   transform="matrix(0.50049821,0,0,0.50049821,1.5237051,10.084176)" /> <polygon
   class="isometric_vijf"
   points="16,24.536 16,16.923 22,20.379 22,28 "
   id="polygon7"
   style="fill:#bc9600;fill-opacity:1"
   transform="matrix(0.50049821,0,0,0.50049821,1.5237051,10.084176)" /> <polygon
   class="isometric_acht"
   points="27.962,24.536 27.962,16.915 22,20.379 22,28 "
   id="polygon8"
   style="fill:#ffcc00;fill-opacity:1"
   transform="matrix(0.50049821,0,0,0.50049821,1.5237051,10.084176)" />    <line
   class="isometric_twaalf"
   x1="21.130024"
   y1="21.709814"
   x2="25.054895"
   y2="19.464134"
   id="line1-5"
   style="fill:#569080;stroke-width:0.654144" /><line
   class="isometric_twaalf"
   x1="21.130024"
   y1="21.709814"
   x2="25.054895"
   y2="19.464134"
   id="line2-5"
   style="fill:#569080;stroke-width:0.654144" /><line
   class="isometric_twaalf"
   x1="26.230972"
   y1="20.358959"
   x2="29.198778"
   y2="18.637611"
   id="line8-1"
   style="fill:#569080;stroke-width:0.497788" /><polygon
   class="isometric_elf"
   points="16.037,2.406 21.962,5.865 16,9.323 10,5.865 "
   id="polygon9-7"
   style="fill:#3d8944;fill-opacity:1"
   transform="matrix(0.49778699,0,0,0.49778699,18.26638,15.718092)" /><polygon
   class="isometric_twaalf"
   points="21.962,13.456 21.962,5.865 16,9.323 16,16.923 "
   id="polygon10-1"
   style="fill:#57b45f;fill-opacity:1"
   transform="matrix(0.49778699,0,0,0.49778699,18.26638,15.718092)" /><polygon
   class="isometric_tien"
   points="10,13.466 10,5.865 16,9.323 16,16.923 "
   id="polygon11-1"
   style="fill:#2b5f2f;fill-opacity:1"
   transform="matrix(0.49778699,0,0,0.49778699,18.26638,15.718092)" /><line
   class="isometric_twaalf"
   x1="27.904202"
   y1="21.79636"
   x2="31.829073"
   y2="19.55068"
   id="line1-5-6"
   style="fill:#569080;stroke-width:0.654144" /><line
   class="isometric_twaalf"
   x1="27.904202"
   y1="21.79636"
   x2="31.829073"
   y2="19.55068"
   id="line2-5-8"
   style="fill:#569080;stroke-width:0.654144" /><line
   class="isometric_twaalf"
   x1="33.00515"
   y1="20.445505"
   x2="35.972954"
   y2="18.724157"
   id="line8-1-5"
   style="fill:#569080;stroke-width:0.497788" /><polygon
   class="isometric_elf"
   points="10,5.865 16.037,2.406 21.962,5.865 16,9.323 "
   id="polygon9-7-76"
   style="fill:#591a4f;fill-opacity:1"
   transform="matrix(0.49778699,0,0,0.49778699,25.040558,15.804639)" /><polygon
   class="isometric_twaalf"
   points="16,16.923 21.962,13.456 21.962,5.865 16,9.323 "
   id="polygon10-1-1"
   style="fill:#6b1f5f;fill-opacity:1"
   transform="matrix(0.49778699,0,0,0.49778699,25.040558,15.804639)" /><polygon
   class="isometric_tien"
   points="16,16.923 10,13.466 10,5.865 16,9.323 "
   id="polygon11-1-8"
   style="fill:#3d1236;fill-opacity:1"
   transform="matrix(0.49778699,0,0,0.49778699,25.040558,15.804639)" /><line
   class="isometric_twaalf"
   x1="19.349646"
   y1="20.360058"
   x2="22.330725"
   y2="18.63101"
   id="line8-1-2"
   style="fill:#569080;stroke-width:0.500014" /><polygon
   class="isometric_elf"
   points="21.962,5.865 16,9.323 10,5.865 16.037,2.406 "
   id="polygon9-7-7"
   style="fill:#dc0000;fill-opacity:1"
   transform="matrix(0.50001356,0,0,0.50001356,11.349426,15.698436)" /><polygon
   class="isometric_twaalf"
   points="21.962,5.865 16,9.323 16,16.923 21.962,13.456 "
   id="polygon10-1-6"
   style="fill:#ff0000;fill-opacity:1"
   transform="matrix(0.50001356,0,0,0.50001356,11.349426,15.698436)" /><polygon
   class="isometric_tien"
   points="10,5.865 16,9.323 16,16.923 10,13.466 "
   id="polygon11-1-1"
   style="fill:#a00000;fill-opacity:1"
   transform="matrix(0.50001356,0,0,0.50001356,11.349426,15.698436)" /> <polygon
   class="isometric_zes"
   points="16,16.923 21.962,13.456 27.962,16.915 22,20.379 "
   id="polygon6-3"
   style="fill:#014b8c;fill-opacity:1"
   transform="matrix(0.50049821,0,0,0.50049821,-5.1101747,10.107481)" /><polygon
   class="isometric_vijf"
   points="22,28 16,24.536 16,16.923 22,20.379 "
   id="polygon7-1"
   style="fill:#013566;fill-opacity:1"
   transform="matrix(0.50049821,0,0,0.50049821,-5.1101747,10.107481)" /><polygon
   class="isometric_acht"
   points="22,28 27.962,24.536 27.962,16.915 22,20.379 "
   id="polygon8-2"
   style="fill:#0155a0;fill-opacity:1"
   transform="matrix(0.50049821,0,0,0.50049821,-5.1101747,10.107481)" /></g> </g>

</svg>
